<?xml version="1.0" encoding="utf-8"?>
<!-- Generator: Adobe Illustrator 24.0.1, SVG Export Plug-In . SVG Version: 6.00 Build 0)  -->
<svg version="1.1" id="Layer_1" xmlns="http://www.w3.org/2000/svg" xmlns:xlink="http://www.w3.org/1999/xlink" x="0px" y="0px"
	 viewBox="0 0 1500 308.9" style="enable-background:new 0 0 1500 308.9;" xml:space="preserve">
<style type="text/css">
	.st0{fill:#2F3740;}
	.st1{fill:#F9B31C;}
</style>
<g>
	<g>
		<path class="st0" d="M155.45,211.29v28.46H34.25C15.28,239.74,0,224.46,0,205.5v-84.31c0-18.97,15.28-34.25,34.25-34.25h120.67
			v28.46H34.25c-3.16,0-5.79,2.63-5.79,5.8v84.31c0,3.16,2.63,5.79,5.79,5.79H155.45z"/>
		<path class="st0" d="M304.33,86.93c18.97,0,34.25,15.28,34.25,34.25v84.31c0,18.97-15.28,34.25-34.25,34.25h-86.95
			c-18.97,0-34.25-15.28-34.25-34.25v-84.31c0-18.97,15.28-34.25,34.25-34.25H304.33z M217.38,115.39c-3.16,0-5.79,2.63-5.79,5.8
			v84.31c0,3.16,2.63,5.79,5.79,5.79h86.95c3.16,0,5.79-2.63,5.79-5.79v-84.31c0-3.16-2.63-5.8-5.79-5.8H217.38z"/>
		<path class="st0" d="M595.74,121.18v118.56h-28.19V121.18c0-3.16-2.63-5.8-6.06-5.8h-60.34c-3.16,0-5.8,2.63-5.8,5.8v118.56H466.9
			V121.18c0-3.16-2.64-5.8-5.8-5.8h-60.6c-3.16,0-5.8,2.63-5.8,5.8v118.56h-28.46V86.93h195.23
			C580.46,86.93,595.74,102.21,595.74,121.18z"/>
		<path class="st0" d="M776.77,121.18v84.31c0,18.97-15.28,34.25-34.25,34.25h-92.74v60.6h-28.45V86.93h121.19
			C761.49,86.93,776.77,102.21,776.77,121.18z M748.32,121.18c0-3.16-2.63-5.8-5.8-5.8h-86.94c-3.16,0-5.8,2.63-5.8,5.8v84.31
			c0,3.16,2.63,5.79,5.8,5.79h86.94c3.16,0,5.8-2.63,5.8-5.79V121.18z"/>
		<path class="st0" d="M950.94,121.18v56.38H823.95v27.93c0,3.16,2.63,5.79,5.8,5.79h121.19v28.46H829.74
			c-18.97,0-34.25-15.28-34.25-34.25v-84.31c0-18.97,15.28-34.25,34.25-34.25h86.94C935.66,86.93,950.94,102.21,950.94,121.18z
			 M922.49,149.11v-27.93c0-3.16-2.63-5.8-5.8-5.8h-86.94c-3.16,0-5.8,2.63-5.8,5.8v27.93H922.49z"/>
		<path class="st0" d="M1006.81,115.39v90.11c0,3.16,2.63,5.79,5.8,5.79h56.91v28.46h-56.91c-18.97,0-34.25-15.28-34.25-34.25
			v-84.31V36.87h28.46v50.06h62.71v28.46H1006.81z"/>
		<path class="st0" d="M1241.31,121.18v56.38h-126.99v27.93c0,3.16,2.63,5.79,5.79,5.79h121.2v28.46h-121.2
			c-18.97,0-34.25-15.28-34.25-34.25v-84.31c0-18.97,15.28-34.25,34.25-34.25h86.95C1226.03,86.93,1241.31,102.21,1241.31,121.18z
			 M1212.85,149.11v-27.93c0-3.16-2.63-5.8-5.79-5.8h-86.95c-3.16,0-5.79,2.63-5.79,5.8v27.93H1212.85z"/>
	</g>
	<path class="st0" d="M1396.76,230.44C1396.76,230.44,1396.76,230.44,1396.76,230.44c-26.99,22.95-58.9,41.69-92.85,53.39
		c5.57,5.68,11.3,11.18,17.2,16.52h75.65h75.65c5.9-5.34,11.64-10.84,17.2-16.52C1455.66,272.12,1423.9,253.49,1396.76,230.44z"/>
	<path class="st1" d="M1487.39,93.75c6.72-21.49,10.99-43.97,12.61-66.62c-32.74-12.23-67.65-18.58-103.21-18.58
		c-0.01,0-0.02,0-0.03,0c-36.06,0-70.27,6.26-103.24,18.6c5.42,78.39,43.13,152.39,103.24,203.28l0,0h0h0
		c28.31-24.05,51.91-53.24,69.47-86.17l-24.06-13.9c-12.11,22.9-27.45,43.82-45.41,62.16c0,0,0,0-0.01,0
		c-38.74-39.53-64.68-90.75-73.16-146.05c23.35-6.65,48.23-10.15,73.16-10.16c0.01,0,0.02,0,0.03,0c24.95,0,49.9,3.53,73.13,10.14
		c-2.14,13.92-9.47,40.53-9.47,40.53L1487.39,93.75z"/>
</g>
</svg>
