<?xml version="1.0" encoding="utf-8"?>
<!-- Generator: Adobe Illustrator 24.0.1, SVG Export Plug-In . SVG Version: 6.00 Build 0)  -->
<svg version="1.2" baseProfile="tiny" id="Layer_1" xmlns="http://www.w3.org/2000/svg" xmlns:xlink="http://www.w3.org/1999/xlink"
	 x="0px" y="0px" viewBox="0 0 595.3 841.9" xml:space="preserve">
<polygon fill="none" points="298,639.5 298,639.5 298,639.5 "/>
<path fill="#FFFFFF" d="M298,639.5C298,639.5,298,639.5,298,639.5c-77.8,66.1-169.8,120.2-267.6,153.9C46.4,809.7,63,825.6,80,841
	h218h218c17-15.4,33.5-31.3,49.6-47.6C467.8,759.7,376.2,706,298,639.5z"/>
<path fill="#FEC605" d="M559.2,245.5c19.4-61.9,31.7-126.7,36.3-192C501.2,18.3,400.6,0,298.1,0c0,0-0.1,0-0.1,0
	C194.1,0,95.5,18,0.4,53.6C16.1,279.6,124.7,492.9,298,639.5l0,0h0h0c81.6-69.3,149.6-153.4,200.2-248.4l-69.4-40.1
	c-34.9,66-79.1,126.3-130.9,179.2c0,0,0,0,0,0c-111.7-113.9-186.4-261.6-210.9-421C154.5,90.1,226.2,80,298,80c0,0,0.1,0,0.1,0
	c71.9,0,143.8,10.2,210.8,29.2c-6.2,40.1-27.3,116.8-27.3,116.8L559.2,245.5z"/>
</svg>
