<?xml version="1.0" encoding="utf-8"?>
<!-- Generator: Adobe Illustrator 24.0.1, SVG Export Plug-In . SVG Version: 6.00 Build 0)  -->
<svg version="1.1" id="Layer_1" xmlns="http://www.w3.org/2000/svg" xmlns:xlink="http://www.w3.org/1999/xlink" x="0px" y="0px"
	 viewBox="0 0 595.3 595.3" style="enable-background:new 0 0 595.3 595.3;" xml:space="preserve">
<style type="text/css">
	.st0{fill:none;}
	.st1{fill:#303740;}
	.st2{fill:#FEC605;}
</style>
<g>
	<polygon class="st0" points="297.6,452.7 297.6,452.7 297.6,452.7 	"/>
	<path class="st1" d="M297.6,452.7C297.6,452.7,297.6,452.7,297.6,452.7c-55.1,46.8-120.2,85.1-189.4,108.9
		c11.4,11.6,23.1,22.8,35.1,33.7h154.3H452c12-10.9,23.7-22.1,35.1-33.7C417.8,537.7,353,499.7,297.6,452.7z"/>
	<path class="st2" d="M482.5,173.8C496.3,130,505,84.1,508.3,37.9C441.5,12.9,370.2,0,297.7,0c0,0,0,0-0.1,0
		C224.1,0,154.3,12.8,87,38c11.1,159.9,88,310.9,210.6,414.7l0,0h0h0c57.8-49.1,105.9-108.6,141.7-175.8l-49.1-28.3
		c-24.7,46.7-56,89.4-92.6,126.8c0,0,0,0,0,0c-79-80.6-131.9-185.1-149.2-298c47.6-13.6,98.4-20.7,149.2-20.7c0,0,0,0,0.1,0
		c50.9,0,101.8,7.2,149.2,20.7c-4.4,28.4-19.3,82.7-19.3,82.7L482.5,173.8z"/>
</g>
</svg>
